<?xml version="1.0" standalone="no"?>
<!DOCTYPE svg PUBLIC "-//W3C//DTD SVG 20010904//EN"
 "http://www.w3.org/TR/2001/REC-SVG-20010904/DTD/svg10.dtd">
<svg version="1.0" xmlns="http://www.w3.org/2000/svg"
 width="512.000000pt" height="512.000000pt" viewBox="0 0 512.000000 512.000000"
 preserveAspectRatio="xMidYMid meet">

<g transform="translate(0.000000,512.000000) scale(0.100000,-0.100000)"
fill="#000000" stroke="none">
<path d="M3159 5105 c-56 -18 -133 -84 -159 -136 l-20 -38 -52 26 c-74 37
-142 53 -233 53 -125 0 -245 -39 -324 -106 l-32 -27 -86 28 c-316 105 -644
-92 -696 -419 -12 -77 -13 -79 -57 -109 -118 -80 -230 -198 -305 -323 l-35
-57 -107 -32 c-146 -42 -245 -86 -355 -155 -106 -66 -142 -105 -160 -172 -15
-59 -1 -125 39 -176 65 -85 335 -220 526 -263 48 -10 61 -18 73 -42 9 -16 14
-30 12 -31 -2 -2 -30 -17 -64 -35 -176 -93 -319 -270 -384 -476 -34 -107 -39
-283 -11 -398 35 -148 119 -290 228 -387 113 -101 312 -210 483 -266 77 -25
90 -33 140 -88 30 -33 90 -86 133 -118 85 -63 282 -166 371 -194 l56 -18 0
-356 0 -357 23 -21 c33 -31 80 -29 106 4 20 26 21 38 21 357 l0 329 28 -5 c15
-4 75 -12 135 -19 102 -11 240 -4 350 19 l28 5 -3 -425 c-3 -412 -4 -426 -24
-453 -48 -64 -61 -69 -232 -72 l-157 -3 -57 30 c-63 34 -84 37 -110 17 -50
-38 -38 -101 29 -145 66 -44 125 -53 313 -49 150 3 169 5 214 27 63 31 122 90
150 150 20 45 21 60 24 507 l3 461 53 16 c72 23 243 107 330 163 39 26 107 83
151 128 75 77 85 83 165 109 248 82 478 232 586 382 106 149 150 299 141 484
-8 177 -66 331 -177 468 l-50 62 83 83 c277 278 384 661 290 1038 -26 104 -48
148 -79 156 -38 10 -77 -7 -92 -39 -11 -23 -10 -37 12 -106 93 -295 30 -621
-167 -866 -61 -75 -163 -169 -176 -162 -72 39 -190 90 -236 103 -33 9 -108 18
-166 21 -133 7 -242 -14 -355 -67 l-82 -38 -60 42 c-146 102 -362 176 -513
176 -46 0 -50 2 -75 42 -119 187 -158 465 -100 693 66 254 231 469 463 601 98
56 112 49 81 -41 -11 -33 -23 -94 -26 -136 -4 -73 -3 -76 23 -97 61 -48 125
-7 125 78 0 17 5 51 11 74 l11 43 81 -1 c71 -1 90 3 139 27 62 30 106 77 138
143 14 30 24 41 37 39 10 -2 47 -9 83 -15 102 -17 127 -28 150 -64 l20 -33
-21 -59 c-11 -32 -23 -93 -26 -135 -5 -73 -5 -76 22 -97 62 -49 112 -18 125
78 16 125 11 120 98 115 l77 -4 83 -75 c88 -81 112 -90 153 -57 16 13 23 29
23 55 0 31 -9 45 -58 95 l-58 59 26 34 c56 74 71 180 39 274 -34 100 -154 184
-262 184 -113 0 -231 -83 -267 -188 -13 -37 -23 -51 -33 -47 -8 3 -46 10 -85
16 -39 6 -81 13 -93 15 -14 3 -28 17 -37 37 -51 123 -214 195 -347 152z m146
-149 c99 -42 98 -194 -1 -241 -88 -42 -185 20 -186 119 -1 52 19 88 65 116 38
24 75 25 122 6z m770 0 c98 -41 99 -193 2 -239 -43 -21 -67 -21 -111 -3 -48
20 -78 67 -78 122 0 52 20 87 65 114 38 24 75 25 122 6z m-1227 -125 c28 -13
52 -27 52 -32 0 -5 -21 -20 -47 -33 -41 -20 -105 -65 -200 -140 l-24 -18 -36
43 c-20 24 -59 65 -86 90 l-48 46 35 21 c70 41 117 52 211 49 68 -2 103 -8
143 -26z m-646 -67 c26 -9 73 -32 105 -53 59 -38 213 -193 213 -214 0 -7 -16
-35 -36 -62 -69 -96 -151 -279 -169 -378 -4 -20 -11 -40 -16 -43 -5 -3 -53 -5
-107 -5 -228 1 -380 81 -455 239 -28 60 -32 77 -32 157 0 80 4 97 32 157 85
180 274 262 465 202z m-604 -577 c13 -30 45 -81 72 -115 l49 -61 -14 -42 c-73
-205 -73 -557 -1 -757 l16 -44 -53 9 c-28 4 -116 8 -194 7 l-142 -1 -36 72
c-53 107 -76 211 -76 335 0 177 50 320 162 470 53 69 168 180 188 180 4 0 17
-24 29 -53z m420 -312 c42 -8 120 -16 172 -18 l95 -2 7 -115 c7 -132 32 -236
84 -357 20 -46 35 -85 33 -87 -2 -1 -33 -8 -69 -15 -130 -25 -274 -86 -374
-158 -38 -27 -51 -32 -57 -21 -24 36 -74 183 -91 268 -32 153 -19 411 27 547
3 9 16 8 50 -7 25 -11 80 -26 123 -35z m-933 -92 c-4 -21 -10 -73 -14 -115 -7
-76 0 -195 14 -270 5 -28 4 -38 -5 -38 -27 0 -217 83 -293 128 -127 75 -137
113 -44 175 88 58 297 154 341 157 4 0 5 -17 1 -37z m1729 -661 c325 -99 522
-333 503 -597 -8 -107 -38 -208 -97 -333 -62 -129 -121 -219 -204 -309 l-64
-69 -74 9 c-40 5 -183 9 -318 9 -135 0 -278 -4 -318 -9 l-74 -9 -64 69 c-83
90 -142 180 -204 309 -88 186 -118 352 -86 477 59 230 260 399 556 467 88 21
357 12 444 -14z m-1159 -97 c32 -9 78 -24 101 -35 l43 -19 -44 -66 c-24 -36
-57 -103 -72 -148 -24 -73 -27 -96 -27 -207 1 -106 5 -139 28 -214 54 -179
141 -349 247 -482 34 -43 46 -65 37 -68 -7 -2 -58 -14 -113 -26 -55 -12 -140
-36 -190 -52 l-90 -30 -84 27 c-46 15 -136 53 -200 86 -286 144 -416 317 -428
574 -6 115 10 198 55 297 80 173 254 318 437 362 81 19 227 20 300 1z m2163
-18 c102 -35 173 -80 251 -158 76 -76 122 -147 159 -251 23 -64 26 -88 27
-198 0 -156 -22 -233 -97 -345 -89 -134 -284 -265 -515 -345 l-93 -32 -92 30
c-51 16 -138 39 -193 52 -55 12 -106 24 -113 26 -8 2 9 32 46 81 114 149 196
315 245 493 15 56 20 105 20 195 1 104 -3 131 -27 202 -14 45 -47 112 -71 148
l-44 66 43 20 c89 39 147 49 266 46 93 -3 129 -9 188 -30z m-888 -1343 c195
-22 480 -84 480 -105 0 -14 -118 -104 -196 -149 -240 -137 -534 -208 -757
-182 -245 29 -522 140 -691 277 -31 25 -56 50 -56 54 0 11 172 56 305 80 101
18 261 36 395 45 98 6 381 -4 520 -20z"/>
<path d="M2842 3937 c-19 -20 -22 -35 -22 -105 0 -69 3 -85 20 -102 30 -30 83
-27 110 8 19 24 21 37 18 105 -3 68 -6 82 -27 98 -32 26 -73 24 -99 -4z"/>
<path d="M3930 3940 c-17 -17 -20 -33 -20 -105 0 -72 3 -88 20 -105 25 -25 71
-26 99 -2 41 33 41 172 0 213 -25 25 -74 24 -99 -1z"/>
<path d="M3246 3839 c-41 -33 -36 -78 15 -124 55 -49 102 -67 175 -67 149 -1
268 118 191 190 -31 29 -55 28 -108 -7 -67 -44 -109 -45 -164 -1 -44 35 -73
38 -109 9z"/>
</g>
</svg>
