<?xml version="1.0" standalone="no"?>
<!DOCTYPE svg PUBLIC "-//W3C//DTD SVG 20010904//EN"
 "http://www.w3.org/TR/2001/REC-SVG-20010904/DTD/svg10.dtd">
<svg version="1.0" xmlns="http://www.w3.org/2000/svg"
 width="512.000000pt" height="512.000000pt" viewBox="0 0 512.000000 512.000000"
 preserveAspectRatio="xMidYMid meet">

<g transform="translate(0.000000,512.000000) scale(0.100000,-0.100000)"
fill="#000000" stroke="none">
<path d="M2079 5105 c-25 -8 -63 -30 -85 -49 -36 -32 -41 -33 -66 -20 -14 7
-66 25 -115 40 -70 21 -110 27 -198 28 -104 1 -114 -1 -175 -30 -81 -39 -135
-91 -168 -162 -50 -110 -10 -256 90 -331 l45 -34 -20 -45 c-25 -59 -33 -155
-18 -232 l12 -61 -35 -40 c-35 -38 -40 -52 -37 -94 3 -29 47 -65 82 -65 20 0
42 12 72 40 l43 39 50 -15 c62 -19 149 -13 228 16 l58 22 16 -23 c57 -85 144
-132 242 -133 114 -1 211 65 266 182 51 106 44 278 -17 446 l-29 79 31 35 c44
50 60 95 60 167 0 103 -58 194 -148 231 -50 22 -133 25 -184 9z m136 -180 c76
-75 -30 -194 -109 -122 -56 50 -21 147 54 147 19 0 40 -9 55 -25z m-513 1 c94
-18 186 -53 197 -74 4 -9 11 -34 15 -54 l7 -38 -58 -26 c-73 -32 -204 -64
-264 -64 -59 0 -144 42 -164 81 -8 15 -15 42 -15 59 0 61 92 128 177 130 17 0
64 -6 105 -14z m433 -316 c20 0 27 -11 49 -72 38 -109 46 -146 46 -221 0 -73
-14 -113 -58 -159 -69 -74 -174 -21 -201 102 -16 73 18 232 74 341 13 25 18
27 41 19 14 -6 36 -10 49 -10z m-316 -136 c-10 -37 -20 -96 -23 -132 -2 -39
-9 -68 -17 -73 -8 -4 -42 -16 -76 -25 -53 -14 -70 -15 -103 -5 -70 21 -89 99
-49 206 l20 55 57 1 c31 0 89 9 127 19 39 10 73 18 76 19 4 0 -2 -29 -12 -65z"/>
<path d="M2857 4936 c-83 -23 -156 -96 -178 -180 -21 -78 9 -187 67 -241 l24
-22 -20 -46 c-27 -61 -56 -177 -65 -257 -27 -257 169 -460 381 -394 47 14 72
31 121 80 l63 62 52 -20 c70 -26 171 -33 229 -15 l45 14 39 -34 c48 -41 81
-51 114 -32 61 35 64 94 7 156 l-32 36 14 66 c13 54 13 78 4 134 -7 38 -19 81
-27 97 -15 28 -14 29 48 92 50 50 67 75 81 122 58 186 -88 365 -314 383 -77 6
-224 -22 -318 -60 l-63 -25 -23 23 c-59 59 -164 85 -249 61z m128 -181 c52
-51 16 -145 -55 -145 -22 0 -41 10 -62 30 -25 26 -29 36 -24 63 13 70 94 100
141 52z m603 -13 c52 -27 85 -78 78 -121 -11 -67 -91 -120 -182 -121 -62 0
-188 31 -262 65 -52 24 -54 26 -48 56 3 17 6 39 6 49 0 11 17 25 48 38 145 62
281 75 360 34z m-499 -432 c31 -94 38 -198 17 -253 -48 -125 -169 -138 -228
-24 -38 73 -24 224 34 360 17 38 25 47 47 48 14 0 35 4 46 8 17 7 24 2 41 -33
12 -23 32 -70 43 -106z m264 34 c38 -8 89 -14 113 -14 44 0 46 -2 64 -43 79
-178 -16 -274 -196 -197 l-44 19 0 53 c0 49 -19 147 -36 192 -6 16 -4 18 12
12 10 -4 50 -14 87 -22z"/>
<path d="M768 3560 c-64 -34 -82 -78 -86 -205 -6 -173 22 -238 119 -272 l49
-18 2 -1470 c3 -1645 -3 -1502 75 -1562 l36 -28 186 -3 c270 -5 270 -5 380
216 l61 122 970 0 970 0 61 -122 c110 -221 110 -221 380 -216 l186 3 36 28
c78 60 72 -83 75 1562 l2 1470 49 18 c97 34 125 99 119 272 -4 128 -23 172
-89 205 -38 20 -67 20 -1791 20 -1712 -1 -1754 -1 -1790 -20z m3500 -232 l-3
-83 -1705 0 -1705 0 -3 83 -3 82 1711 0 1711 0 -3 -82z m-168 -513 l0 -255
-1540 0 -1540 0 0 255 0 255 1540 0 1540 0 0 -255z m0 -680 l0 -255 -1540 0
-1540 0 0 255 0 255 1540 0 1540 0 0 -255z m-5 -685 l0 -255 -1535 0 -1535 0
-3 245 c-1 134 0 250 3 257 3 11 304 13 1537 11 l1533 -3 0 -255z m3 -682 l-3
-253 -1535 0 -1535 0 -3 253 -2 252 1540 0 1540 0 -2 -252z m-2708 -433 c0 -3
-18 -41 -40 -85 l-40 -80 -145 0 -145 0 0 85 0 85 185 0 c102 0 185 -2 185 -5z
m2710 -80 l0 -85 -145 0 -145 0 -40 80 c-22 44 -40 82 -40 85 0 3 83 5 185 5
l185 0 0 -85z"/>
<path d="M1225 2878 c-47 -41 -28 -129 30 -144 59 -15 109 27 107 89 -1 40
-41 77 -82 77 -16 0 -41 -10 -55 -22z"/>
<path d="M1994 2876 c-21 -18 -28 -32 -28 -61 0 -29 7 -43 28 -61 l27 -24 539
0 539 0 27 24 c21 18 28 32 28 61 0 29 -7 43 -28 61 l-27 24 -539 0 -539 0
-27 -24z"/>
<path d="M3785 2878 c-47 -41 -28 -129 30 -144 59 -15 109 27 107 89 -1 40
-41 77 -82 77 -16 0 -41 -10 -55 -22z"/>
<path d="M1242 2210 c-27 -11 -51 -62 -44 -96 6 -32 47 -64 82 -64 35 0 76 32
82 64 7 36 -17 85 -47 96 -31 12 -42 12 -73 0z"/>
<path d="M1996 2198 c-40 -35 -43 -78 -11 -116 l27 -32 548 0 548 0 27 32 c32
38 29 81 -11 116 l-25 22 -539 0 -539 0 -25 -22z"/>
<path d="M3802 2210 c-27 -11 -51 -62 -44 -96 6 -32 47 -64 82 -64 35 0 76 32
82 64 7 36 -17 85 -47 96 -31 12 -42 12 -73 0z"/>
<path d="M1244 1526 c-51 -22 -62 -95 -21 -134 54 -51 137 -13 137 61 0 35
-27 77 -49 77 -5 0 -15 2 -23 5 -7 2 -27 -2 -44 -9z"/>
<path d="M2014 1526 c-42 -18 -61 -65 -44 -106 7 -17 21 -35 31 -40 24 -13
1094 -13 1118 0 31 16 46 65 30 101 -24 59 -26 59 -591 59 -406 -1 -519 -4
-544 -14z"/>
<path d="M3804 1526 c-51 -22 -62 -95 -21 -134 54 -51 137 -13 137 61 0 35
-27 77 -49 77 -5 0 -15 2 -23 5 -7 2 -27 -2 -44 -9z"/>
<path d="M1223 828 c-40 -43 -31 -108 18 -134 59 -30 119 8 119 74 0 74 -89
112 -137 60z"/>
<path d="M1992 830 c-44 -41 -35 -110 18 -137 36 -18 1064 -18 1100 0 53 27
62 96 18 137 -21 20 -33 20 -568 20 -535 0 -547 0 -568 -20z"/>
<path d="M3783 828 c-40 -43 -31 -108 18 -134 59 -30 119 8 119 74 0 74 -89
112 -137 60z"/>
</g>
</svg>
