<?xml version="1.0" standalone="no"?>
<!DOCTYPE svg PUBLIC "-//W3C//DTD SVG 20010904//EN"
 "http://www.w3.org/TR/2001/REC-SVG-20010904/DTD/svg10.dtd">
<svg version="1.0" xmlns="http://www.w3.org/2000/svg"
 width="512.000000pt" height="512.000000pt" viewBox="0 0 512.000000 512.000000"
 preserveAspectRatio="xMidYMid meet">

<g transform="translate(0.000000,512.000000) scale(0.100000,-0.100000)"
fill="#000000" stroke="none">
<path d="M3871 5104 c-77 -21 -141 -58 -199 -117 -61 -63 -98 -130 -114 -208
l-12 -58 -78 74 c-128 121 -249 165 -395 144 -220 -30 -391 -243 -371 -460 l5
-51 -42 5 c-63 9 -162 -10 -231 -43 -165 -80 -267 -277 -237 -454 18 -103 54
-169 143 -261 l80 -82 -57 -13 c-151 -33 -273 -142 -322 -288 -28 -82 -28
-192 0 -274 26 -79 44 -105 143 -206 l81 -82 -638 -638 c-581 -581 -637 -640
-637 -670 0 -42 30 -72 72 -72 30 0 90 57 670 637 l638 638 127 -128 128 -127
-1090 -1091 c-751 -752 -1102 -1097 -1130 -1110 -51 -24 -99 -24 -150 0 -48
22 -69 44 -90 94 -19 46 -19 88 0 135 11 25 132 154 377 399 321 321 361 365
361 393 0 41 -32 73 -73 73 -28 0 -72 -40 -401 -369 -425 -425 -424 -423 -424
-564 0 -73 4 -93 28 -141 32 -66 99 -132 165 -162 35 -16 67 -22 127 -22 154
0 48 -95 1292 1149 l1113 1111 64 -64 65 -65 3 -396 3 -397 30 -49 c19 -30 49
-60 79 -79 44 -27 58 -30 126 -30 68 0 82 3 126 30 30 19 60 49 79 79 l30 49
3 358 3 358 42 24 c54 32 129 111 158 168 12 24 29 72 38 106 l16 62 88 -85
87 -85 0 -102 c0 -123 16 -164 84 -224 118 -104 295 -70 369 72 16 32 21 64
25 155 l4 115 54 54 c90 90 143 233 127 347 -3 24 -2 44 3 44 27 -1 32 -21 36
-137 3 -116 4 -123 33 -164 49 -70 104 -102 179 -107 80 -5 127 10 179 57 80
72 82 82 85 460 4 451 -6 495 -158 655 l-69 72 58 12 c219 45 371 270 333 492
-22 131 -51 171 -296 417 -148 148 -230 224 -249 229 -42 10 -81 -22 -85 -69
-3 -32 4 -43 67 -110 l71 -74 0 -62 c0 -56 -3 -66 -29 -92 -20 -20 -39 -29
-61 -29 -42 0 -90 47 -90 88 0 72 -47 149 -113 185 -40 21 -54 22 -324 25
l-282 3 -10 31 c-20 55 -13 158 13 213 44 95 153 165 256 165 81 0 135 -27
225 -110 64 -59 93 -80 113 -80 60 0 95 56 68 109 -23 43 -144 149 -206 181
-99 50 -207 62 -309 34z m-621 -335 c34 -15 98 -72 244 -218 l199 -199 -5 -51
c-7 -68 -36 -101 -90 -101 -56 0 -83 31 -92 104 -12 107 -68 185 -161 228 -46
21 -66 23 -267 26 -182 3 -218 6 -218 18 0 29 29 83 66 124 85 94 206 120 324
69z m29 -372 c47 -17 70 -52 81 -124 20 -142 107 -223 237 -223 93 1 181 54
215 130 7 16 15 30 18 30 3 0 213 -208 466 -462 403 -405 464 -469 480 -513
17 -45 19 -82 19 -393 l0 -344 -28 -24 c-38 -32 -90 -32 -122 1 -24 23 -25 29
-25 165 0 196 -4 203 -132 214 -31 2 -74 12 -95 22 -25 11 -276 254 -752 728
-654 652 -771 773 -771 798 0 13 370 9 409 -5z m995 -10 c7 -9 16 -39 19 -66
7 -60 26 -98 68 -140 43 -43 82 -62 143 -68 81 -8 133 11 191 70 28 29 55 67
60 86 l10 33 87 -90 c71 -73 89 -99 102 -143 31 -103 12 -197 -56 -274 -58
-66 -123 -95 -213 -95 -120 0 -129 7 -500 379 l-330 332 203 -3 c180 -3 205
-5 216 -21z m-1524 -133 c48 -22 148 -118 743 -712 378 -378 706 -710 727
-738 52 -67 76 -154 61 -225 -20 -91 -41 -121 -155 -216 -26 -21 -26 -24 -26
-148 0 -139 -10 -172 -55 -193 -41 -19 -64 -14 -96 17 l-29 29 0 128 0 127
-37 31 c-20 17 -196 190 -392 384 -337 333 -359 352 -393 352 -40 0 -78 -35
-78 -72 0 -13 72 -94 189 -212 164 -168 191 -200 210 -250 52 -140 -5 -291
-136 -357 -26 -13 -58 -33 -70 -43 l-23 -19 0 -369 c0 -262 -3 -376 -12 -391
-17 -33 -39 -46 -78 -46 -39 0 -61 13 -78 46 -9 15 -12 136 -12 419 l0 398
-399 401 c-219 220 -407 416 -417 435 -14 27 -19 57 -19 125 0 80 3 95 27 137
75 127 217 178 353 127 44 -16 79 -43 169 -130 94 -90 119 -109 144 -109 21 0
37 8 51 26 43 55 41 57 -263 363 -267 269 -285 289 -300 340 -31 105 -12 198
55 275 91 103 211 128 339 70z"/>
<path d="M3040 991 c-76 -25 -127 -70 -159 -141 -18 -38 -21 -65 -20 -185 0
-88 5 -153 13 -176 34 -95 125 -159 225 -159 103 1 195 66 226 161 24 72 18
318 -9 369 -26 49 -64 88 -110 112 -43 22 -128 32 -166 19z m128 -177 c20 -23
22 -35 22 -150 0 -125 0 -126 -29 -155 -40 -39 -82 -39 -122 0 -29 29 -29 30
-29 153 0 97 3 128 16 146 34 48 102 51 142 6z"/>
</g>
</svg>
